<svg id="visual" viewBox="0 0 960 300" width="960" height="300" xmlns="http://www.w3.org/2000/svg" xmlns:xlink="http://www.w3.org/1999/xlink" version="1.1"><rect x="0" y="0" width="960" height="300" fill="#001220"></rect><path d="M0 114L17.8 118.3C35.7 122.7 71.3 131.3 106.8 128.2C142.3 125 177.7 110 213.2 110.3C248.7 110.7 284.3 126.3 320 133.2C355.7 140 391.3 138 426.8 129.2C462.3 120.3 497.7 104.7 533.2 97.2C568.7 89.7 604.3 90.3 640 95.3C675.7 100.3 711.3 109.7 746.8 117.3C782.3 125 817.7 131 853.2 125.3C888.7 119.7 924.3 102.3 942.2 93.7L960 85L960 0L942.2 0C924.3 0 888.7 0 853.2 0C817.7 0 782.3 0 746.8 0C711.3 0 675.7 0 640 0C604.3 0 568.7 0 533.2 0C497.7 0 462.3 0 426.8 0C391.3 0 355.7 0 320 0C284.3 0 248.7 0 213.2 0C177.7 0 142.3 0 106.8 0C71.3 0 35.7 0 17.8 0L0 0Z" fill="#fa7268"></path><path d="M0 105L17.8 100.8C35.7 96.7 71.3 88.3 106.8 82.2C142.3 76 177.7 72 213.2 70.8C248.7 69.7 284.3 71.3 320 79.2C355.7 87 391.3 101 426.8 102.3C462.3 103.7 497.7 92.3 533.2 87C568.7 81.7 604.3 82.3 640 80.5C675.7 78.7 711.3 74.3 746.8 78.8C782.3 83.3 817.7 96.7 853.2 99.5C888.7 102.3 924.3 94.7 942.2 90.8L960 87L960 0L942.2 0C924.3 0 888.7 0 853.2 0C817.7 0 782.3 0 746.8 0C711.3 0 675.7 0 640 0C604.3 0 568.7 0 533.2 0C497.7 0 462.3 0 426.8 0C391.3 0 355.7 0 320 0C284.3 0 248.7 0 213.2 0C177.7 0 142.3 0 106.8 0C71.3 0 35.7 0 17.8 0L0 0Z" fill="#fd5b64"></path><path d="M0 52L17.8 55C35.7 58 71.3 64 106.8 68.5C142.3 73 177.7 76 213.2 75.3C248.7 74.7 284.3 70.3 320 69C355.7 67.7 391.3 69.3 426.8 65C462.3 60.7 497.7 50.3 533.2 49.5C568.7 48.7 604.3 57.3 640 60.3C675.7 63.3 711.3 60.7 746.8 62.2C782.3 63.7 817.7 69.3 853.2 66.8C888.7 64.3 924.3 53.7 942.2 48.3L960 43L960 0L942.2 0C924.3 0 888.7 0 853.2 0C817.7 0 782.3 0 746.8 0C711.3 0 675.7 0 640 0C604.3 0 568.7 0 533.2 0C497.7 0 462.3 0 426.8 0C391.3 0 355.7 0 320 0C284.3 0 248.7 0 213.2 0C177.7 0 142.3 0 106.8 0C71.3 0 35.7 0 17.8 0L0 0Z" fill="#ff3f63"></path><path d="M0 32L17.8 35.2C35.7 38.3 71.3 44.7 106.8 43.5C142.3 42.3 177.7 33.7 213.2 31.8C248.7 30 284.3 35 320 38.5C355.7 42 391.3 44 426.8 45C462.3 46 497.7 46 533.2 43C568.7 40 604.3 34 640 30C675.7 26 711.3 24 746.8 26C782.3 28 817.7 34 853.2 38.3C888.7 42.7 924.3 45.3 942.2 46.7L960 48L960 0L942.2 0C924.3 0 888.7 0 853.2 0C817.7 0 782.3 0 746.8 0C711.3 0 675.7 0 640 0C604.3 0 568.7 0 533.2 0C497.7 0 462.3 0 426.8 0C391.3 0 355.7 0 320 0C284.3 0 248.7 0 213.2 0C177.7 0 142.3 0 106.8 0C71.3 0 35.7 0 17.8 0L0 0Z" fill="#ff0066"></path></svg>